<?xml version="1.0" standalone="no"?>
<!DOCTYPE svg PUBLIC "-//W3C//DTD SVG 20010904//EN"
 "http://www.w3.org/TR/2001/REC-SVG-20010904/DTD/svg10.dtd">
<svg version="1.0" xmlns="http://www.w3.org/2000/svg"
 width="241.000000pt" height="241.000000pt" viewBox="0 0 241.000000 241.000000"
 preserveAspectRatio="xMidYMid meet">
<metadata>
Created by potrace 1.11, written by Peter Selinger 2001-2013
</metadata>
<g transform="translate(0.000000,241.000000) scale(0.100000,-0.100000)"
fill="#000000" stroke="none">
<path d="M285 2289 c-16 -16 -19 -37 -20 -117 0 -55 -6 -106 -12 -118 -7 -12
-14 -43 -17 -70 -3 -27 -8 -60 -11 -74 -16 -73 -45 -256 -45 -286 0 -18 9 -56
19 -83 12 -29 22 -85 25 -138 3 -49 12 -104 20 -123 14 -36 57 -80 77 -80 5 0
7 -4 4 -10 -3 -6 1 -7 9 -4 9 3 13 11 9 18 -4 6 1 5 10 -3 11 -9 17 -10 17 -2
0 6 7 11 15 11 8 0 15 5 15 11 0 5 -4 7 -10 4 -6 -3 -10 -1 -10 4 0 6 4 11 8
11 5 0 9 7 9 15 0 8 -4 12 -8 9 -5 -3 -11 7 -15 21 -3 13 -9 23 -13 21 -4 -3
-12 4 -19 14 -9 14 -9 21 0 26 7 5 8 3 3 -6 -5 -9 -4 -11 4 -6 6 4 9 12 5 17
-3 5 -10 7 -15 4 -12 -8 -12 17 1 50 8 21 8 26 -3 22 -8 -3 -13 3 -13 14 0 11
5 18 11 15 7 -2 12 2 12 10 0 7 -5 10 -10 7 -6 -4 -8 4 -5 20 3 14 1 32 -4 39
-7 9 -8 8 -4 -5 3 -10 2 -16 -3 -13 -5 3 -11 15 -14 26 -3 11 -1 18 4 14 5 -3
6 2 3 10 -3 9 -10 13 -16 10 -12 -8 -6 29 7 38 6 4 2 8 -8 8 -10 0 -15 5 -12
10 4 6 12 7 18 4 8 -5 8 -3 0 7 -15 16 -17 33 -3 24 6 -3 10 -1 10 4 0 6 -4
11 -8 11 -5 0 -9 7 -9 15 0 11 4 12 13 4 8 -7 14 -6 20 2 4 7 3 9 -3 6 -6 -4
-10 6 -11 24 0 16 3 27 7 25 4 -3 8 1 8 9 0 8 -5 11 -11 8 -6 -4 -5 1 3 10 11
14 11 17 0 17 -12 0 -12 2 0 9 7 5 11 13 7 19 -3 5 0 12 7 15 14 5 16 41 4 53
-10 11 -8 24 4 24 5 0 7 -6 3 -12 -4 -7 -4 -10 1 -6 4 4 8 23 9 42 1 29 -1 33
-14 23 -13 -10 -13 -10 -3 4 7 9 10 18 7 22 -3 3 5 3 18 0 18 -4 20 -3 8 6
-13 10 -13 13 3 22 14 8 15 14 5 32 -10 19 -9 21 4 9 13 -10 18 -10 24 -1 4 7
3 9 -3 6 -6 -4 -14 0 -17 9 -9 22 -8 26 6 18 7 -5 8 -3 3 7 -11 17 -16 61 -6
55 4 -3 8 1 8 9 0 8 -3 12 -7 10 -4 -2 -7 3 -7 11 0 9 6 13 16 9 9 -4 6 5 -9
21 -14 15 -19 24 -12 20 19 -11 -6 32 -32 56 -25 23 -39 23 -61 -3z"/>
<path d="M1328 2215 c-2 -1 -43 -5 -93 -8 -251 -17 -480 -147 -652 -369 -60
-78 -118 -215 -137 -323 -3 -16 -8 -41 -11 -55 -9 -44 -6 -255 4 -255 7 0 78
-232 74 -240 -4 -5 -2 -7 2 -2 5 4 24 -26 44 -65 19 -40 37 -75 41 -78 18 -15
40 -62 34 -72 -4 -7 -3 -8 4 -4 6 4 16 -4 23 -16 7 -13 27 -41 46 -64 18 -23
33 -46 33 -53 0 -6 4 -11 9 -11 11 0 44 -50 44 -67 0 -7 4 -10 8 -8 4 3 21
-14 38 -37 16 -24 38 -51 47 -60 21 -22 31 -19 -185 -62 -197 -39 -224 -52
-229 -110 -2 -28 3 -44 22 -67 14 -17 26 -25 26 -17 0 10 2 10 9 -1 7 -12 13
-12 24 -3 7 7 16 9 20 6 3 -3 3 4 0 15 -3 13 -1 21 5 19 6 -2 18 6 27 17 14
16 16 17 11 3 -4 -15 -3 -16 14 -6 12 8 15 15 9 19 -6 3 2 6 18 6 30 0 67 8
82 18 5 3 13 0 17 -6 5 -8 9 -7 14 2 5 7 18 13 29 14 11 1 18 -2 15 -7 -3 -4
2 -5 10 -2 9 3 14 9 12 13 -2 3 6 6 19 6 13 0 21 -3 19 -6 -1 -3 3 -6 10 -6 8
0 12 5 10 12 -3 6 6 11 18 12 18 2 20 0 8 -7 -9 -6 -10 -10 -3 -10 6 0 14 4
18 9 3 5 19 9 37 9 24 -1 44 -14 90 -60 32 -32 62 -58 67 -58 5 0 13 -9 16
-20 3 -11 12 -20 20 -20 7 0 16 -7 19 -16 4 -9 13 -14 21 -10 8 3 15 1 15 -5
0 -6 7 -9 15 -5 8 3 24 -5 36 -17 12 -12 19 -17 16 -12 -3 6 9 10 28 10 18 0
31 -3 28 -7 -10 -17 17 -7 27 10 11 16 11 16 6 -2 -6 -18 -5 -18 18 -2 16 10
27 12 31 6 4 -6 19 3 35 20 15 16 38 30 49 30 15 0 21 5 19 17 -3 17 1 19 37
22 9 0 20 13 25 27 6 14 19 28 30 31 11 3 20 12 20 20 0 8 5 11 10 8 6 -3 10
-1 10 5 0 6 4 8 10 5 5 -3 7 0 4 8 -3 8 7 27 22 43 14 16 20 20 13 9 -13 -18
-12 -19 2 -8 9 7 18 10 21 7 3 -3 5 3 5 13 -1 10 4 17 11 15 8 -1 11 2 8 7 -3
5 4 11 15 14 12 3 18 10 14 16 -3 6 -1 11 6 11 8 0 8 5 -2 18 -7 9 -10 14 -5
10 11 -9 46 9 46 23 0 6 8 21 19 34 13 18 21 21 29 13 9 -9 10 -6 7 11 -3 18
-1 21 12 17 14 -6 14 -4 2 11 -8 9 -9 14 -3 10 7 -4 14 2 17 14 4 15 11 20 23
15 14 -6 15 -4 4 9 -11 13 -11 16 1 13 8 -2 13 3 11 11 -2 9 3 11 14 7 14 -5
15 -4 4 9 -12 14 -7 20 14 16 5 -1 6 6 2 15 -4 11 -2 15 8 11 10 -4 13 1 11
19 -2 19 1 22 11 13 10 -8 12 -6 9 10 -3 18 4 25 25 23 3 0 5 15 5 33 -1 19 3
33 9 32 6 -1 10 6 10 15 -1 10 4 14 13 11 7 -3 13 -2 12 3 -3 20 2 35 10 29 5
-3 13 0 17 6 4 8 3 9 -4 5 -7 -4 -12 -2 -12 3 0 6 6 11 13 11 8 0 7 4 -3 11
-12 9 -12 10 5 6 15 -3 20 2 21 20 1 14 -2 21 -10 17 -6 -3 -3 1 6 9 10 8 15
17 11 20 -3 4 -1 7 5 7 7 0 12 7 12 15 0 8 -5 15 -12 15 -6 0 -8 3 -5 6 4 4
15 1 24 -7 10 -7 15 -9 11 -5 -4 5 -2 16 5 24 9 13 9 14 0 8 -8 -4 -13 -1 -13
9 0 9 4 14 9 10 5 -3 12 -1 16 5 3 5 0 10 -7 10 -10 0 -9 3 2 10 8 5 11 12 7
16 -4 4 1 13 11 20 15 12 15 15 2 24 -13 8 -12 10 5 10 14 0 16 3 7 8 -7 5
-10 16 -6 25 3 9 9 15 13 12 4 -2 8 2 8 10 0 8 -3 12 -7 10 -3 -2 -6 5 -6 15
0 12 4 16 11 10 12 -10 12 50 0 70 -5 9 -4 11 3 6 7 -4 12 -3 12 3 0 5 3 18 6
28 5 15 4 16 -5 3 -9 -11 -10 -4 -7 32 2 28 0 46 -5 42 -13 -7 -7 19 6 28 6 4
2 8 -7 8 -10 0 -18 5 -18 11 0 5 4 8 8 5 13 -8 8 26 -8 54 -8 14 -13 29 -12
34 2 4 -2 14 -8 21 -8 10 -7 16 7 24 16 9 16 10 -4 11 -13 0 -23 5 -23 11 0 5
6 7 13 3 6 -4 4 2 -7 14 -10 11 -16 27 -14 34 3 7 -2 18 -11 25 -11 8 -12 12
-3 13 6 0 12 4 12 10 0 5 -7 7 -17 3 -13 -5 -15 -2 -11 15 4 12 1 25 -4 29 -7
4 -8 1 -4 -8 4 -8 0 -5 -8 5 -9 11 -16 27 -16 35 0 12 -3 13 -8 4 -6 -9 -11
-7 -20 7 -10 16 -10 20 0 21 7 0 2 5 -11 10 -14 6 -21 15 -18 24 4 10 1 12
-10 8 -13 -5 -15 -2 -9 12 4 11 4 16 0 12 -10 -10 -35 13 -27 26 3 5 2 7 -4 4
-12 -7 -44 28 -35 39 4 4 1 4 -6 0 -7 -4 -15 -1 -18 8 -3 9 -10 16 -16 16 -5
0 -23 13 -40 29 -27 25 -174 111 -203 118 -5 1 -53 14 -105 28 -52 15 -124 28
-160 31 -36 3 -73 7 -82 8 -9 2 -18 3 -20 1z m-728 -907 c0 6 7 12 15 12 8 0
15 -5 15 -10 0 -7 7 -7 22 1 18 10 20 9 15 -5 -3 -8 -2 -18 4 -21 5 -4 8 -1 7
5 -4 16 39 23 48 8 5 -7 2 -8 -7 -3 -8 5 -10 4 -6 0 10 -12 38 -15 31 -4 -3 5
0 9 5 9 6 0 11 -4 11 -9 0 -5 7 -12 16 -15 8 -3 13 -2 10 2 -3 5 1 9 9 9 8 0
12 -4 9 -9 -5 -7 18 -12 39 -9 4 0 7 -5 7 -13 0 -9 7 -13 20 -11 12 2 20 -2
20 -10 0 -8 6 -12 13 -9 8 3 20 -2 27 -11 7 -8 20 -15 29 -15 12 0 13 -2 3 -9
-10 -6 -9 -10 7 -14 14 -3 19 -1 15 6 -3 7 4 1 15 -12 12 -13 21 -20 21 -16 0
5 8 -2 19 -13 10 -12 22 -22 27 -22 5 0 31 -23 58 -51 36 -37 57 -72 81 -134
19 -47 32 -85 29 -85 -3 0 0 -9 5 -19 6 -10 14 -56 17 -101 l7 -83 -75 7
c-101 9 -179 30 -264 71 -79 38 -177 112 -168 126 3 5 -2 9 -11 9 -11 0 -15 5
-11 16 3 8 2 12 -4 9 -6 -3 -13 2 -17 12 -4 10 -15 27 -25 37 -10 11 -18 30
-18 43 0 14 -6 23 -16 23 -8 0 -12 5 -9 10 3 6 2 10 -4 10 -5 0 -8 9 -6 20 2
13 -2 20 -11 20 -8 0 -14 5 -14 11 0 5 4 8 8 5 4 -2 8 4 8 14 0 10 -3 17 -7
14 -11 -6 -22 34 -13 48 5 8 2 9 -12 4 -15 -6 -16 -5 -7 5 10 10 9 17 -4 31
-15 17 -15 18 -1 13 13 -5 15 -2 11 15 -4 16 -8 18 -14 8 -5 -7 -9 -8 -9 -2 0
5 5 15 12 22 7 7 8 12 2 12 -6 0 -9 14 -6 31 3 22 7 27 13 18 6 -10 9 -11 9
-1z m1443 5 c-7 -2 -13 -9 -13 -14 0 -6 8 -5 20 1 11 6 20 7 20 3 0 -4 5 -2
12 5 20 20 36 -4 31 -46 -9 -72 -72 -235 -119 -306 -101 -154 -156 -201 -289
-248 -123 -45 -270 -66 -279 -41 -3 7 0 13 6 13 9 0 9 3 1 11 -13 13 -5 49 10
49 6 0 2 6 -9 14 -18 14 -18 15 -1 22 15 5 16 9 5 15 -10 7 -11 9 0 9 7 0 10
5 7 10 -3 6 -1 10 5 10 8 0 7 6 -1 21 -6 12 -7 19 -1 16 15 -10 33 38 19 53
-9 10 -9 11 1 6 6 -4 12 -2 12 5 0 6 8 18 18 26 11 10 12 12 2 8 -10 -4 -9 -2
3 8 9 8 17 17 17 20 0 4 -8 4 -17 2 -10 -3 -3 2 15 10 31 14 46 33 19 22 -8
-3 -14 1 -14 8 0 8 3 14 6 13 20 -2 31 4 31 16 0 8 5 18 12 22 7 5 8 3 3 -6
-5 -8 -4 -11 3 -6 6 4 8 14 5 23 -4 11 -3 14 5 9 7 -4 12 -2 12 4 0 6 5 8 12
4 8 -5 9 -2 4 11 -5 15 -4 16 9 5 13 -11 14 -10 8 6 -6 16 -5 17 9 6 13 -11
16 -10 14 5 -1 13 6 18 21 17 19 0 21 2 10 15 -9 12 -9 13 1 7 6 -4 12 -3 12
3 0 5 9 8 21 6 18 -4 19 -2 8 13 -7 9 -9 14 -5 10 5 -4 16 -2 24 5 13 10 14 9
8 -3 -4 -8 1 -5 11 6 11 13 28 21 45 20 21 -1 25 1 18 15 -6 11 -5 16 5 16 8
0 12 -4 9 -9 -3 -4 -1 -8 4 -8 6 0 12 7 16 15 3 8 11 15 18 15 9 0 8 -3 -2
-10 -8 -5 -11 -10 -7 -10 4 0 20 8 35 17 27 17 27 17 12 -2 -14 -18 -14 -19 2
-7 10 8 23 10 30 6 8 -5 8 -1 -2 11 -14 17 -14 18 10 5 24 -13 24 -12 10 6
-15 18 -14 18 14 0 26 -16 28 -17 23 -2 -4 9 -3 14 2 11 5 -3 12 -1 16 5 3 5
12 10 18 9 9 0 9 -2 0 -6z m-578 -423 c-3 -5 -12 -10 -18 -10 -7 0 -6 4 3 10
19 12 23 12 15 0z"/>
<path d="M395 997 c-14 -11 -20 -30 -23 -78 -4 -58 -8 -67 -38 -92 -34 -29
-56 -81 -49 -120 21 -108 65 -227 85 -227 6 0 8 -4 5 -10 -4 -7 2 -7 19 0 17
6 27 6 32 -2 4 -7 3 -8 -4 -4 -8 5 -10 1 -5 -9 4 -12 8 -13 13 -5 4 7 13 9 19
6 6 -4 11 -1 11 6 0 8 3 9 8 3 4 -6 18 1 34 18 24 25 26 31 6 28 -4 0 -5 5 -3
12 7 17 -5 31 -42 49 -23 12 -34 13 -37 4 -3 -6 -3 -1 0 12 3 13 -1 28 -10 37
-8 9 -13 22 -10 30 4 9 0 15 -7 15 -11 0 -11 3 1 10 13 9 13 10 0 10 -13 0
-13 1 0 10 11 7 11 10 2 10 -8 0 -6 8 7 22 11 11 18 25 15 30 -3 5 -2 8 3 7
17 -3 53 14 48 22 -3 4 5 18 17 30 13 12 18 19 12 16 -7 -4 -14 3 -16 18 -4
18 -1 25 11 25 11 1 8 5 -9 15 -23 13 -15 21 14 16 5 -1 4 4 -2 12 -7 8 -9 17
-5 21 4 4 -1 4 -12 0 -18 -7 -19 -6 -5 11 8 10 10 16 3 12 -7 -4 -14 1 -18 13
-3 11 -10 20 -15 20 -5 0 -14 2 -22 5 -7 3 -22 -1 -33 -8z"/>
<path d="M2066 784 c-5 -14 -4 -15 9 -4 17 14 19 20 6 20 -5 0 -12 -7 -15 -16z"/>
<path d="M436 751 c-13 -14 -14 -21 -5 -27 7 -4 10 -3 6 3 -8 13 17 36 28 25
5 -4 5 -1 1 6 -9 16 -10 15 -30 -7z"/>
<path d="M1850 485 c-7 -9 -8 -15 -2 -15 5 0 12 7 16 15 3 8 4 15 2 15 -2 0
-9 -7 -16 -15z"/>
<path d="M500 475 c-11 -13 -10 -14 4 -9 9 3 16 10 16 15 0 13 -6 11 -20 -6z"/>
<path d="M1687 306 c-4 -10 -1 -13 8 -9 8 3 12 9 9 14 -7 12 -11 11 -17 -5z"/>
<path d="M1605 220 c-3 -5 -1 -10 4 -10 6 0 11 5 11 10 0 6 -2 10 -4 10 -3 0
-8 -4 -11 -10z"/>
<path d="M1474 114 c-18 -14 -18 -14 6 -3 31 14 36 19 24 19 -6 0 -19 -7 -30
-16z"/>
</g>
</svg>
